<svg width="472" height="148" viewBox="0 0 472 148" fill="none" xmlns="http://www.w3.org/2000/svg">
<path d="M197.375 114H180.736L150.764 62.8359V114H135.208V36.2783H151.848L181.82 87.4966V36.2783H197.375V114ZM232.496 99.7998C233.074 99.9805 233.652 100.107 234.23 100.179C234.809 100.215 235.387 100.233 235.965 100.233C237.41 100.233 238.801 100.035 240.138 99.6372C241.475 99.2397 242.722 98.6797 243.878 97.957C245.07 97.1982 246.118 96.2949 247.021 95.2471C247.961 94.1631 248.72 92.9707 249.298 91.6699L260.138 102.564C258.765 104.515 257.175 106.268 255.368 107.821C253.598 109.375 251.665 110.694 249.569 111.778C247.509 112.862 245.323 113.675 243.011 114.217C240.734 114.795 238.386 115.084 235.965 115.084C231.882 115.084 228.034 114.325 224.42 112.808C220.843 111.29 217.7 109.176 214.99 106.466C212.316 103.756 210.202 100.541 208.648 96.8188C207.095 93.061 206.318 88.9419 206.318 84.4614C206.318 79.8726 207.095 75.6812 208.648 71.8872C210.202 68.0933 212.316 64.8594 214.99 62.1855C217.7 59.5117 220.843 57.4341 224.42 55.9526C228.034 54.4712 231.882 53.7305 235.965 53.7305C238.386 53.7305 240.752 54.0195 243.065 54.5977C245.377 55.1758 247.563 56.0068 249.623 57.0908C251.719 58.1748 253.67 59.5117 255.477 61.1016C257.283 62.6553 258.873 64.4077 260.246 66.3589L232.496 99.7998ZM240.084 69.2856C239.397 69.0327 238.711 68.8701 238.024 68.7979C237.374 68.7256 236.688 68.6895 235.965 68.6895C233.941 68.6895 232.026 69.0688 230.22 69.8276C228.449 70.5503 226.896 71.5981 225.559 72.9712C224.258 74.3442 223.228 76.0063 222.469 77.9575C221.71 79.8726 221.331 82.0405 221.331 84.4614C221.331 85.0034 221.349 85.6177 221.385 86.3042C221.458 86.9907 221.548 87.6953 221.656 88.418C221.801 89.1045 221.963 89.7729 222.144 90.4233C222.325 91.0737 222.56 91.6519 222.849 92.1577L240.084 69.2856ZM341.003 93.0249C341.003 96.0601 340.425 98.9326 339.269 101.643C338.112 104.316 336.522 106.647 334.499 108.634C332.512 110.622 330.163 112.193 327.453 113.35C324.779 114.506 321.907 115.084 318.835 115.084C316.089 115.084 313.452 114.614 310.922 113.675C308.393 112.699 306.099 111.29 304.039 109.447C302.016 111.29 299.739 112.699 297.21 113.675C294.717 114.614 292.079 115.084 289.297 115.084C286.226 115.084 283.353 114.506 280.679 113.35C278.005 112.193 275.657 110.622 273.633 108.634C271.646 106.647 270.074 104.316 268.918 101.643C267.762 98.9326 267.184 96.0601 267.184 93.0249V56.061H281.98V93.0249C281.98 94.0366 282.161 94.9941 282.522 95.8975C282.919 96.7646 283.443 97.5415 284.094 98.228C284.78 98.8784 285.557 99.4023 286.424 99.7998C287.328 100.161 288.285 100.342 289.297 100.342C290.309 100.342 291.266 100.161 292.169 99.7998C293.073 99.4023 293.868 98.8784 294.554 98.228C295.241 97.5415 295.765 96.7646 296.126 95.8975C296.523 94.9941 296.722 94.0366 296.722 93.0249V56.061H311.464V93.0249C311.464 94.0366 311.663 94.9941 312.061 95.8975C312.458 96.7646 312.982 97.5415 313.632 98.228C314.319 98.8784 315.096 99.4023 315.963 99.7998C316.866 100.161 317.824 100.342 318.835 100.342C319.847 100.342 320.805 100.161 321.708 99.7998C322.611 99.4023 323.388 98.8784 324.039 98.228C324.725 97.5415 325.267 96.7646 325.665 95.8975C326.062 94.9941 326.261 94.0366 326.261 93.0249V56.061H341.003V93.0249ZM407.939 114H404.362L398.617 106.033C397.208 107.297 395.708 108.49 394.118 109.61C392.564 110.694 390.92 111.651 389.186 112.482C387.452 113.277 385.663 113.91 383.82 114.379C382.014 114.849 380.171 115.084 378.292 115.084C374.209 115.084 370.361 114.397 366.748 113.024C363.17 111.651 360.027 109.664 357.317 107.062C354.643 104.425 352.529 101.209 350.976 97.415C349.422 93.6211 348.645 89.3032 348.645 84.4614C348.645 79.9448 349.422 75.8076 350.976 72.0498C352.529 68.2559 354.643 65.0039 357.317 62.2939C360.027 59.584 363.17 57.4883 366.748 56.0068C370.361 54.4893 374.209 53.7305 378.292 53.7305C380.171 53.7305 382.032 53.9653 383.875 54.4351C385.717 54.9048 387.506 55.5552 389.24 56.3862C390.975 57.2173 392.619 58.1929 394.172 59.313C395.762 60.4331 397.244 61.6436 398.617 62.9443L404.362 56.061H407.939V114ZM393.034 84.4614C393.034 82.438 392.637 80.4868 391.842 78.6079C391.083 76.6929 390.035 75.0127 388.698 73.5674C387.361 72.0859 385.79 70.9116 383.983 70.0444C382.212 69.1411 380.315 68.6895 378.292 68.6895C376.269 68.6895 374.354 69.0327 372.547 69.7192C370.776 70.4058 369.223 71.4175 367.886 72.7544C366.585 74.0913 365.555 75.7534 364.796 77.7407C364.038 79.6919 363.658 81.9321 363.658 84.4614C363.658 86.9907 364.038 89.249 364.796 91.2363C365.555 93.1875 366.585 94.8315 367.886 96.1685C369.223 97.5054 370.776 98.5171 372.547 99.2036C374.354 99.8901 376.269 100.233 378.292 100.233C380.315 100.233 382.212 99.7998 383.983 98.9326C385.79 98.0293 387.361 96.855 388.698 95.4097C390.035 93.9282 391.083 92.248 391.842 90.3691C392.637 88.4541 393.034 86.4849 393.034 84.4614ZM464.577 114H416.177L440.621 70.8032H416.177V56.061H464.577L440.133 99.2578H464.577V114Z" fill="#1B1B1B"/>
<path d="M28.3964 31.2756C26.6653 32.277 25.2338 33.1115 23.7025 33.9793C23.7025 58.6126 23.7025 83.2125 23.7025 108.146C20.4067 106.244 17.3441 104.475 14.1482 102.639C14.1482 81.7104 14.1482 60.7822 14.1482 39.5201C12.4505 40.4881 11.019 41.3226 9.58753 42.157C9.58753 63.2522 9.58753 84.2806 9.58753 105.409C27.664 115.89 45.807 126.371 64.0167 136.918C71.0408 132.713 78.065 128.474 85.2556 124.168C85.2556 127.94 85.2556 131.544 85.2556 135.249C78.2647 139.455 71.2073 143.694 64.0167 148C42.6778 135.65 21.3389 123.3 0 110.95C0 86.1832 0 61.4831 0 36.6496C12.517 29.4065 25.0673 22.13 37.8507 14.7199C37.8507 21.5625 37.8507 28.1714 37.8507 34.747C53.7633 44.894 69.5095 54.9076 85.3223 64.9879C85.3223 68.6595 85.3223 72.2977 85.3223 76.3365C69.5428 66.2896 53.8965 56.3095 37.9839 46.1958C37.9839 69.6942 37.9839 92.8922 37.9839 116.424C34.6216 114.488 31.5589 112.719 28.3964 110.917C28.3964 84.4809 28.3964 58.0451 28.3964 31.2756Z" fill="#E9C08A"/>
<path d="M28.3964 31.2756C26.6653 32.277 25.2338 33.1115 23.7025 33.9793C23.7025 58.6126 23.7025 83.2125 23.7025 108.146C20.4067 106.244 17.3441 104.475 14.1482 102.639C14.1482 81.7104 14.1482 60.7822 14.1482 39.5201C12.4505 40.4881 11.019 41.3226 9.58753 42.157C9.58753 63.2522 9.58753 84.2806 9.58753 105.409C27.664 115.89 45.807 126.371 64.0167 136.918C71.0408 132.713 78.065 128.474 85.2556 124.168C85.2556 127.94 85.2556 131.544 85.2556 135.249C78.2647 139.455 71.2073 143.694 64.0167 148C42.6778 135.65 21.3389 123.3 0 110.95C0 86.1832 0 61.4831 0 36.6496C12.517 29.4065 25.0673 22.13 37.8507 14.7199C37.8507 21.5625 37.8507 28.1714 37.8507 34.747C53.7633 44.894 69.5095 54.9076 85.3223 64.9879C85.3223 68.6595 85.3223 72.2977 85.3223 76.3365C69.5428 66.2896 53.8965 56.3095 37.9839 46.1958C37.9839 69.6942 37.9839 92.8922 37.9839 116.424C34.6216 114.488 31.5589 112.719 28.3964 110.917C28.3964 84.4809 28.3964 58.0451 28.3964 31.2756Z" fill="url(#paint0_linear)"/>
<path d="M42.7111 23.9657C42.7111 20.1272 42.7111 16.6225 42.7111 12.9175C49.702 8.6784 56.7927 4.37258 64.0167 0C85.3223 12.3166 106.628 24.6667 128 37.0501C128 61.8169 128 86.5169 128 111.384C115.516 118.594 102.999 125.87 90.1826 133.28C90.1826 126.538 90.1826 120.029 90.1826 113.487C74.27 103.273 58.4572 93.1258 42.6777 82.9788C42.6777 79.2404 42.6777 75.6022 42.6777 71.6301C58.5238 81.7772 74.1368 91.8241 90.0827 102.038C90.0827 78.4393 90.0827 55.2079 90.0827 31.576C93.445 33.512 96.5077 35.281 99.6369 37.0835C99.6369 63.5526 99.6369 89.9883 99.6369 116.724C101.335 115.756 102.766 114.922 104.331 114.021C104.331 89.3875 104.331 64.7542 104.331 39.8205C107.627 41.7231 110.689 43.4921 113.852 45.3279C113.852 66.2562 113.852 87.1845 113.852 108.513C115.583 107.512 117.014 106.677 118.512 105.843C118.512 84.8146 118.512 63.8196 118.512 42.6243C100.436 32.1768 82.2929 21.6626 64.0499 11.115C56.9592 15.3541 49.9683 19.5932 42.7111 23.9657Z" fill="#E9C08A"/>
<path d="M42.7111 23.9657C42.7111 20.1272 42.7111 16.6225 42.7111 12.9175C49.702 8.6784 56.7927 4.37258 64.0167 0C85.3223 12.3166 106.628 24.6667 128 37.0501C128 61.8169 128 86.5169 128 111.384C115.516 118.594 102.999 125.87 90.1826 133.28C90.1826 126.538 90.1826 120.029 90.1826 113.487C74.27 103.273 58.4572 93.1258 42.6777 82.9788C42.6777 79.2404 42.6777 75.6022 42.6777 71.6301C58.5238 81.7772 74.1368 91.8241 90.0827 102.038C90.0827 78.4393 90.0827 55.2079 90.0827 31.576C93.445 33.512 96.5077 35.281 99.6369 37.0835C99.6369 63.5526 99.6369 89.9883 99.6369 116.724C101.335 115.756 102.766 114.922 104.331 114.021C104.331 89.3875 104.331 64.7542 104.331 39.8205C107.627 41.7231 110.689 43.4921 113.852 45.3279C113.852 66.2562 113.852 87.1845 113.852 108.513C115.583 107.512 117.014 106.677 118.512 105.843C118.512 84.8146 118.512 63.8196 118.512 42.6243C100.436 32.1768 82.2929 21.6626 64.0499 11.115C56.9592 15.3541 49.9683 19.5932 42.7111 23.9657Z" fill="url(#paint1_linear)"/>
<path d="M42.6445 66.056C42.6445 62.3176 42.6445 58.7127 42.6445 54.7073C56.9925 63.853 71.1074 72.8652 85.2889 81.9441C85.2889 85.6157 85.2889 89.2874 85.2889 93.2928C70.9742 84.1137 56.7927 75.1015 42.6445 66.056Z" fill="#E9C08A"/>
<path d="M42.6445 66.056C42.6445 62.3176 42.6445 58.7127 42.6445 54.7073C56.9925 63.853 71.1074 72.8652 85.2889 81.9441C85.2889 85.6157 85.2889 89.2874 85.2889 93.2928C70.9742 84.1137 56.7927 75.1015 42.6445 66.056Z" fill="url(#paint2_linear)"/>
<defs>
<linearGradient id="paint0_linear" x1="51.5" y1="36.5" x2="139.648" y2="187.058" gradientUnits="userSpaceOnUse">
<stop offset="0.117708" stop-color="#E9C08A"/>
<stop offset="1" stop-color="#1B1B1B"/>
</linearGradient>
<linearGradient id="paint1_linear" x1="51.5" y1="36.5" x2="139.648" y2="187.058" gradientUnits="userSpaceOnUse">
<stop offset="0.117708" stop-color="#E9C08A"/>
<stop offset="1" stop-color="#1B1B1B"/>
</linearGradient>
<linearGradient id="paint2_linear" x1="51.5" y1="36.5" x2="139.648" y2="187.058" gradientUnits="userSpaceOnUse">
<stop offset="0.117708" stop-color="#E9C08A"/>
<stop offset="1" stop-color="#1B1B1B"/>
</linearGradient>
</defs>
</svg>
